<svg width="153" height="103" viewBox="0 0 153 103" fill="none" xmlns="http://www.w3.org/2000/svg">
<path d="M1 1V56.7841M1 1H23.3136M1 1L9.36762 26.1028M1 56.7841H20.5244V45.6273M1 56.7841L9.36762 26.1028M20.5244 45.6273L31.6813 56.7841M20.5244 45.6273L9.36762 26.1028M20.5244 45.6273L34.4705 12.1568M31.6813 56.7841H53.9949M31.6813 56.7841L45.6273 40.0489M53.9949 56.7841V1M53.9949 56.7841L45.6273 40.0489M53.9949 1H34.4705V12.1568M53.9949 1L45.6273 40.0489M34.4705 12.1568L23.3136 1M34.4705 12.1568L45.6273 40.0489M23.3136 1L9.36762 26.1028" stroke="white" stroke-width="2"/>
<path d="M81.8872 1L67.9412 12.1568L62.3628 28.8921M81.8872 1H98.6225L115.358 12.1568M81.8872 1L79.098 28.8921M81.8872 1L104.201 37.2597M115.358 12.1568L120.936 28.8921L115.358 45.6273M115.358 12.1568L104.201 37.2597M115.358 45.6273L101.412 56.7841M115.358 45.6273L104.201 37.2597M101.412 56.7841H81.8872M101.412 56.7841L104.201 37.2597M81.8872 56.7841L67.9412 45.6273L62.3628 28.8921M81.8872 56.7841L104.201 37.2597M81.8872 56.7841L79.098 28.8921M62.3628 28.8921H79.098M79.098 28.8921L104.201 37.2597" stroke="white" stroke-width="2"/>
<path d="M129.304 1H151.617M129.304 1L143.25 14.946M129.304 1V40.0489M151.617 1L143.25 14.946M151.617 1V28.8921M151.617 56.7841H129.304M151.617 56.7841V28.8921M151.617 56.7841L140.461 37.2597M129.304 56.7841L140.461 37.2597M129.304 56.7841V40.0489M143.25 14.946L151.617 28.8921M143.25 14.946L140.477 37.1244M140.461 37.2597L140.477 37.1244M140.477 37.1244L129.304 40.0489" stroke="white" stroke-width="2"/>
<path d="M22.1085 96.264C20.5104 96.264 18.9607 95.9613 17.4595 95.356C15.9825 94.7506 14.6749 93.8911 13.5369 92.7772L16.0067 89.9079C16.8541 90.707 17.8227 91.3607 18.9123 91.8692C20.0019 92.3535 21.0915 92.5956 22.1811 92.5956C23.537 92.5956 24.5661 92.3172 25.2683 91.7603C25.9705 91.2034 26.3216 90.4649 26.3216 89.5447C26.3216 88.552 25.9705 87.8377 25.2683 87.4019C24.5903 86.966 23.7186 86.5181 22.6533 86.058L19.3844 84.6415C18.6096 84.3025 17.8469 83.8667 17.0963 83.334C16.3699 82.8013 15.7645 82.1233 15.2803 81.3001C14.8202 80.4768 14.5902 79.4841 14.5902 78.3218C14.5902 77.0627 14.9292 75.9368 15.6072 74.944C16.3093 73.9271 17.2537 73.128 18.4401 72.5469C19.6508 71.9416 21.031 71.6389 22.5806 71.6389C23.9608 71.6389 25.2925 71.9174 26.5758 72.4743C27.8591 73.007 28.9609 73.7334 29.881 74.6535L27.7381 77.3412C26.9875 76.7116 26.1884 76.2153 25.3409 75.8521C24.5177 75.4889 23.5976 75.3072 22.5806 75.3072C21.4668 75.3072 20.5588 75.5615 19.8566 76.07C19.1786 76.5542 18.8396 77.2322 18.8396 78.1039C18.8396 78.7092 19.0091 79.2177 19.3481 79.6293C19.7113 80.0168 20.1835 80.3557 20.7646 80.6463C21.3457 80.9127 21.9632 81.179 22.6169 81.4454L25.8494 82.7892C27.2538 83.3945 28.4039 84.1936 29.2998 85.1863C30.1957 86.1549 30.6437 87.4987 30.6437 89.2179C30.6437 90.5012 30.3047 91.6755 29.6267 92.7409C28.9487 93.8063 27.9681 94.6659 26.6848 95.3196C25.4257 95.9492 23.9002 96.264 22.1085 96.264ZM34.9629 95.8281V72.0748H49.3094V75.6341H39.1761V82.3534H47.8203V85.9127H39.1761V95.8281H34.9629ZM59.5281 96.264C57.93 96.264 56.3804 95.9613 54.8791 95.356C53.4021 94.7506 52.0946 93.8911 50.9566 92.7772L53.4263 89.9079C54.2738 90.707 55.2423 91.3607 56.332 91.8692C57.4216 92.3535 58.5112 92.5956 59.6008 92.5956C60.9567 92.5956 61.9858 92.3172 62.688 91.7603C63.3902 91.2034 63.7413 90.4649 63.7413 89.5447C63.7413 88.552 63.3902 87.8377 62.688 87.4019C62.01 86.966 61.1383 86.5181 60.0729 86.058L56.8041 84.6415C56.0293 84.3025 55.2666 83.8667 54.5159 83.334C53.7895 82.8013 53.1842 82.1233 52.6999 81.3001C52.2399 80.4768 52.0099 79.4841 52.0099 78.3218C52.0099 77.0627 52.3488 75.9368 53.0268 74.944C53.729 73.9271 54.6733 73.128 55.8598 72.5469C57.0705 71.9416 58.4506 71.6389 60.0003 71.6389C61.3805 71.6389 62.7122 71.9174 63.9955 72.4743C65.2788 73.007 66.3805 73.7334 67.3006 74.6535L65.1577 77.3412C64.4071 76.7116 63.6081 76.2153 62.7606 75.8521C61.9374 75.4889 61.0173 75.3072 60.0003 75.3072C58.8865 75.3072 57.9785 75.5615 57.2763 76.07C56.5983 76.5542 56.2593 77.2322 56.2593 78.1039C56.2593 78.7092 56.4288 79.2177 56.7678 79.6293C57.131 80.0168 57.6032 80.3557 58.1843 80.6463C58.7654 80.9127 59.3828 81.179 60.0366 81.4454L63.2691 82.7892C64.6735 83.3945 65.8236 84.1936 66.7195 85.1863C67.6154 86.1549 68.0634 87.4987 68.0634 89.2179C68.0634 90.5012 67.7244 91.6755 67.0464 92.7409C66.3684 93.8063 65.3878 94.6659 64.1045 95.3196C62.8454 95.9492 61.3199 96.264 59.5281 96.264ZM81.8622 96.264C79.8767 96.264 78.0728 95.7918 76.4505 94.8475C74.8282 93.9032 73.5328 92.523 72.5642 90.707C71.6199 88.8668 71.1477 86.6391 71.1477 84.0241C71.1477 81.4332 71.632 79.2177 72.6005 77.3775C73.5933 75.5131 74.9129 74.0966 76.5594 73.128C78.2059 72.1353 80.0219 71.6389 82.0074 71.6389C83.5087 71.6389 84.8404 71.9416 86.0027 72.5469C87.1649 73.1523 88.1213 73.8544 88.872 74.6535L86.6201 77.3775C86.0148 76.7479 85.3368 76.2516 84.5862 75.8884C83.8598 75.501 83.0365 75.3072 82.1164 75.3072C80.8331 75.3072 79.683 75.6583 78.666 76.3605C77.6732 77.0385 76.8863 78.0192 76.3052 79.3025C75.7483 80.5858 75.4698 82.1233 75.4698 83.9151C75.4698 86.627 76.0631 88.7578 77.2495 90.3075C78.436 91.8329 80.0219 92.5956 82.0074 92.5956C83.0728 92.5956 84.0172 92.3777 84.8404 91.9419C85.6637 91.4818 86.4143 90.8886 87.0923 90.1622L89.3441 92.8136C88.3756 93.9274 87.2618 94.7869 86.0027 95.3923C84.7678 95.9734 83.3876 96.264 81.8622 96.264ZM101.329 96.264C99.2705 96.264 97.4545 95.7676 95.8806 94.7748C94.3067 93.7579 93.0718 92.3293 92.1759 90.4891C91.3043 88.6246 90.8684 86.4091 90.8684 83.8425C90.8684 81.2759 91.3043 79.0845 92.1759 77.2685C93.0718 75.4525 94.3067 74.0603 95.8806 73.0917C97.4545 72.1232 99.2705 71.6389 101.329 71.6389C103.411 71.6389 105.239 72.1232 106.813 73.0917C108.387 74.0603 109.61 75.4525 110.481 77.2685C111.377 79.0845 111.825 81.2759 111.825 83.8425C111.825 86.4091 111.377 88.6246 110.481 90.4891C109.61 92.3293 108.387 93.7579 106.813 94.7748C105.239 95.7676 103.411 96.264 101.329 96.264ZM101.329 92.5956C103.193 92.5956 104.682 91.8087 105.796 90.2348C106.91 88.6367 107.467 86.506 107.467 83.8425C107.467 81.179 106.91 79.0966 105.796 77.5954C104.682 76.07 103.193 75.3072 101.329 75.3072C99.4642 75.3072 97.9751 76.07 96.8612 77.5954C95.7474 79.0966 95.1905 81.179 95.1905 83.8425C95.1905 86.506 95.7474 88.6367 96.8612 90.2348C97.9751 91.8087 99.4642 92.5956 101.329 92.5956ZM116.577 95.8281V72.0748H120.899L128.308 85.4406L130.742 90.4891H130.887C130.79 89.2784 130.669 87.9588 130.524 86.5302C130.403 85.1016 130.342 83.7214 130.342 82.3897V72.0748H134.374V95.8281H130.052L122.642 82.4623L120.209 77.4138H120.064C120.16 78.6729 120.269 79.9925 120.39 81.3727C120.536 82.7529 120.608 84.1088 120.608 85.4406V95.8281H116.577Z" fill="white"/>
</svg>
