<svg width="153" height="103" viewBox="0 0 153 103" fill="none" xmlns="http://www.w3.org/2000/svg">
<path d="M1 1V56.7841M1 1H23.3136M1 1L9.36762 26.1028M1 56.7841H20.5244V45.6273M1 56.7841L9.36762 26.1028M20.5244 45.6273L31.6813 56.7841M20.5244 45.6273L9.36762 26.1028M20.5244 45.6273L34.4705 12.1568M31.6813 56.7841H53.9949M31.6813 56.7841L45.6273 40.0489M53.9949 56.7841V1M53.9949 56.7841L45.6273 40.0489M53.9949 1H34.4705V12.1568M53.9949 1L45.6273 40.0489M34.4705 12.1568L23.3136 1M34.4705 12.1568L45.6273 40.0489M23.3136 1L9.36762 26.1028" stroke="#333333" stroke-width="2"/>
<path d="M81.8872 1L67.9412 12.1568L62.3628 28.8921M81.8872 1H98.6225L115.358 12.1568M81.8872 1L79.098 28.8921M81.8872 1L104.201 37.2597M115.358 12.1568L120.936 28.8921L115.358 45.6273M115.358 12.1568L104.201 37.2597M115.358 45.6273L101.412 56.7841M115.358 45.6273L104.201 37.2597M101.412 56.7841H81.8872M101.412 56.7841L104.201 37.2597M81.8872 56.7841L67.9412 45.6273L62.3628 28.8921M81.8872 56.7841L104.201 37.2597M81.8872 56.7841L79.098 28.8921M62.3628 28.8921H79.098M79.098 28.8921L104.201 37.2597" stroke="#333333" stroke-width="2"/>
<path d="M129.304 1H151.617M129.304 1L143.25 14.946M129.304 1V40.0489M151.617 1L143.25 14.946M151.617 1V28.8921M151.617 56.7841H129.304M151.617 56.7841V28.8921M151.617 56.7841L140.461 37.2597M129.304 56.7841L140.461 37.2597M129.304 56.7841V40.0489M143.25 14.946L151.617 28.8921M143.25 14.946L140.477 37.1244M140.461 37.2597L140.477 37.1244M140.477 37.1244L129.304 40.0489" stroke="#333333" stroke-width="2"/>
<path d="M22.1085 96.264C20.5104 96.264 18.9607 95.9613 17.4595 95.356C15.9825 94.7506 14.6749 93.8911 13.5369 92.7772L16.0067 89.9079C16.8541 90.707 17.8227 91.3607 18.9123 91.8692C20.0019 92.3535 21.0915 92.5956 22.1811 92.5956C23.537 92.5956 24.5661 92.3172 25.2683 91.7603C25.9705 91.2034 26.3216 90.4649 26.3216 89.5447C26.3216 89.0605 26.2247 88.6488 26.031 88.3099C25.8615 87.9709 25.6073 87.6803 25.2683 87.4382C24.9535 87.1718 24.5661 86.9297 24.1061 86.7118C23.6702 86.4939 23.186 86.2759 22.6533 86.058L19.3844 84.6415C18.8033 84.3994 18.2222 84.0967 17.6411 83.7335C17.0842 83.3703 16.5757 82.9345 16.1156 82.426C15.6556 81.9175 15.2803 81.3243 14.9897 80.6463C14.7234 79.9683 14.5902 79.1935 14.5902 78.3218C14.5902 77.3775 14.7839 76.5058 15.1713 75.7068C15.5829 74.8835 16.1398 74.1692 16.842 73.5639C17.5442 72.9585 18.3796 72.4864 19.3481 72.1474C20.3409 71.8084 21.4184 71.6389 22.5806 71.6389C23.9608 71.6389 25.2925 71.9174 26.5758 72.4743C27.8591 73.007 28.9609 73.7334 29.881 74.6535L27.7381 77.3412C26.9632 76.7116 26.1642 76.2153 25.3409 75.8521C24.5177 75.4889 23.5976 75.3072 22.5806 75.3072C21.4426 75.3072 20.5346 75.5615 19.8566 76.07C19.1786 76.5542 18.8396 77.2322 18.8396 78.1039C18.8396 78.564 18.9365 78.9635 19.1302 79.3025C19.3481 79.6172 19.6266 79.9078 19.9656 80.1741C20.3288 80.4163 20.7404 80.6463 21.2005 80.8642C21.6605 81.0579 22.1327 81.2516 22.6169 81.4454L25.8494 82.7892C26.5516 83.0798 27.1933 83.4187 27.7744 83.8062C28.3555 84.1936 28.8519 84.6415 29.2635 85.15C29.6994 85.6585 30.0384 86.2517 30.2805 86.9297C30.5226 87.5835 30.6437 88.3462 30.6437 89.2179C30.6437 90.1864 30.45 91.0944 30.0626 91.9419C29.6752 92.7893 29.1061 93.54 28.3555 94.1937C27.6291 94.8233 26.7332 95.3317 25.6678 95.7192C24.6267 96.0824 23.4402 96.264 22.1085 96.264ZM34.9629 95.8281V72.0748H49.3094V75.6341H39.1761V82.3534H47.8203V85.9127H39.1761V95.8281H34.9629ZM59.5281 96.264C57.93 96.264 56.3804 95.9613 54.8791 95.356C53.4021 94.7506 52.0946 93.8911 50.9566 92.7772L53.4263 89.9079C54.2738 90.707 55.2423 91.3607 56.332 91.8692C57.4216 92.3535 58.5112 92.5956 59.6008 92.5956C60.9567 92.5956 61.9858 92.3172 62.688 91.7603C63.3902 91.2034 63.7413 90.4649 63.7413 89.5447C63.7413 89.0605 63.6444 88.6488 63.4507 88.3099C63.2812 87.9709 63.027 87.6803 62.688 87.4382C62.3732 87.1718 61.9858 86.9297 61.5257 86.7118C61.0899 86.4939 60.6056 86.2759 60.0729 86.058L56.8041 84.6415C56.223 84.3994 55.6419 84.0967 55.0607 83.7335C54.5038 83.3703 53.9954 82.9345 53.5353 82.426C53.0752 81.9175 52.6999 81.3243 52.4094 80.6463C52.143 79.9683 52.0099 79.1935 52.0099 78.3218C52.0099 77.3775 52.2036 76.5058 52.591 75.7068C53.0026 74.8835 53.5595 74.1692 54.2617 73.5639C54.9639 72.9585 55.7993 72.4864 56.7678 72.1474C57.7605 71.8084 58.838 71.6389 60.0003 71.6389C61.3805 71.6389 62.7122 71.9174 63.9955 72.4743C65.2788 73.007 66.3805 73.7334 67.3006 74.6535L65.1577 77.3412C64.3829 76.7116 63.5839 76.2153 62.7606 75.8521C61.9374 75.4889 61.0173 75.3072 60.0003 75.3072C58.8623 75.3072 57.9543 75.5615 57.2763 76.07C56.5983 76.5542 56.2593 77.2322 56.2593 78.1039C56.2593 78.564 56.3562 78.9635 56.5499 79.3025C56.7678 79.6172 57.0462 79.9078 57.3852 80.1741C57.7484 80.4163 58.1601 80.6463 58.6201 80.8642C59.0802 81.0579 59.5523 81.2516 60.0366 81.4454L63.2691 82.7892C63.9713 83.0798 64.6129 83.4187 65.1941 83.8062C65.7752 84.1936 66.2716 84.6415 66.6832 85.15C67.119 85.6585 67.458 86.2517 67.7002 86.9297C67.9423 87.5835 68.0634 88.3462 68.0634 89.2179C68.0634 90.1864 67.8696 91.0944 67.4822 91.9419C67.0948 92.7893 66.5258 93.54 65.7752 94.1937C65.0488 94.8233 64.1529 95.3317 63.0875 95.7192C62.0463 96.0824 60.8599 96.264 59.5281 96.264ZM81.8622 96.264C80.3609 96.264 78.9566 95.9976 77.649 95.4649C76.3415 94.9322 75.2035 94.1453 74.2349 93.1041C73.2906 92.0629 72.54 90.7796 71.9831 89.2542C71.4262 87.7287 71.1477 85.9854 71.1477 84.0241C71.1477 82.087 71.4262 80.3557 71.9831 78.8303C72.5642 77.2806 73.339 75.9731 74.3076 74.9077C75.3003 73.8423 76.4505 73.0312 77.758 72.4743C79.0897 71.9174 80.5062 71.6389 82.0074 71.6389C83.5087 71.6389 84.8404 71.9416 86.0027 72.5469C87.1649 73.1523 88.1213 73.8544 88.872 74.6535L86.6201 77.3775C85.9906 76.7479 85.3126 76.2516 84.5862 75.8884C83.8598 75.501 83.0365 75.3072 82.1164 75.3072C81.1479 75.3072 80.252 75.5131 79.4287 75.9247C78.6297 76.3121 77.9275 76.8811 77.3222 77.6317C76.741 78.3581 76.281 79.254 75.942 80.3194C75.6272 81.3848 75.4698 82.5834 75.4698 83.9151C75.4698 86.627 76.0509 88.7578 77.2132 90.3075C78.3996 91.8329 79.9977 92.5956 82.0074 92.5956C83.0728 92.5956 84.0172 92.3777 84.8404 91.9419C85.6637 91.4818 86.4143 90.8886 87.0923 90.1622L89.3441 92.8136C88.3756 93.9274 87.2618 94.7869 86.0027 95.3923C84.7678 95.9734 83.3876 96.264 81.8622 96.264ZM101.329 96.264C99.779 96.264 98.3625 95.9855 97.0792 95.4286C95.7959 94.8475 94.6941 94.0242 93.774 92.9588C92.8539 91.8692 92.1396 90.5617 91.6311 89.0363C91.1227 87.5108 90.8684 85.7796 90.8684 83.8425C90.8684 81.9296 91.1227 80.2226 91.6311 78.7213C92.1396 77.1959 92.8539 75.9126 93.774 74.8714C94.6941 73.8302 95.7959 73.0312 97.0792 72.4743C98.3625 71.9174 99.779 71.6389 101.329 71.6389C102.878 71.6389 104.295 71.9174 105.578 72.4743C106.861 73.0312 107.963 73.8302 108.883 74.8714C109.828 75.9126 110.554 77.1959 111.062 78.7213C111.571 80.2226 111.825 81.9296 111.825 83.8425C111.825 85.7796 111.571 87.5108 111.062 89.0363C110.554 90.5617 109.828 91.8692 108.883 92.9588C107.963 94.0242 106.861 94.8475 105.578 95.4286C104.295 95.9855 102.878 96.264 101.329 96.264ZM101.329 92.5956C102.273 92.5956 103.12 92.3898 103.871 91.9782C104.622 91.5666 105.263 90.9854 105.796 90.2348C106.329 89.46 106.74 88.5399 107.031 87.4745C107.321 86.3849 107.467 85.1742 107.467 83.8425C107.467 81.179 106.91 79.0966 105.796 77.5954C104.706 76.07 103.217 75.3072 101.329 75.3072C99.44 75.3072 97.9387 76.07 96.8249 77.5954C95.7353 79.0966 95.1905 81.179 95.1905 83.8425C95.1905 85.1742 95.3358 86.3849 95.6264 87.4745C95.9169 88.5399 96.3286 89.46 96.8612 90.2348C97.3939 90.9854 98.0356 91.5666 98.7862 91.9782C99.5368 92.3898 100.384 92.5956 101.329 92.5956ZM116.577 95.8281V72.0748H120.899L128.308 85.4406L130.742 90.4891H130.887C130.79 89.2542 130.669 87.9345 130.524 86.5302C130.403 85.1016 130.342 83.7214 130.342 82.3897V72.0748H134.374V95.8281H130.052L122.642 82.4623L120.209 77.4138H120.064C120.16 78.6729 120.269 79.9925 120.39 81.3727C120.536 82.7529 120.608 84.1088 120.608 85.4406V95.8281H116.577Z" fill="#333333"/>
</svg>
