<svg width="834" height="697" viewBox="0 0 834 697" fill="none" xmlns="http://www.w3.org/2000/svg">
<path d="M527.864 437.733L171.595 789.439L491.428 653.201M527.864 437.733L491.428 653.201M527.864 437.733L667.538 802M527.864 437.733L402.361 114.048M527.864 437.733L35.9702 518.896M527.864 437.733L330.499 348.841M527.864 437.733L692.841 357.537M491.428 653.201L667.538 802M667.538 802L692.841 357.537M667.538 802L823.406 702.479M402.361 114.048L330.499 348.841M402.361 114.048L692.841 357.537M402.361 114.048L491.428 47.3788M402.361 114.048L106.819 1M402.361 114.048L89.613 208.738M330.499 348.841L35.9702 518.896M330.499 348.841L89.613 208.738M35.9702 518.896L89.613 208.738M35.9702 518.896L-6.53914 645.472M35.9702 518.896L144.268 789.439M89.613 208.738L-45 114.048M89.613 208.738L106.819 1M89.613 208.738L-6.53914 194.245M89.613 208.738L-33.8666 300.53M692.841 357.537L491.428 47.3788M692.841 357.537L749.52 168.157M692.841 357.537L851.745 254.151V357.537H692.841ZM692.841 357.537L873 532.423L823.406 702.479M692.841 357.537L823.406 702.479M491.428 47.3788L749.52 168.157M106.819 1L-45 114.048M106.819 1L-33.8666 47.3788L-45 114.048M749.52 168.157L842.636 183.616V121.778L749.52 168.157Z" stroke="black" stroke-opacity="0.2"/>
</svg>
